<?xml version="1.0" standalone="no"?>
<!DOCTYPE svg PUBLIC "-//W3C//DTD SVG 20010904//EN"
 "http://www.w3.org/TR/2001/REC-SVG-20010904/DTD/svg10.dtd">
<svg version="1.0" xmlns="http://www.w3.org/2000/svg"
 width="700.000000pt" height="700.000000pt" viewBox="0 0 700.000000 700.000000"
 preserveAspectRatio="xMidYMid meet">
<metadata>
Created by potrace 1.11, written by Peter Selinger 2001-2013
</metadata>
<g transform="translate(0.000000,700.000000) scale(0.100000,-0.100000)"
fill="#000000" stroke="none">
<path d="M3334 6981 c-428 -116 -633 -590 -426 -986 47 -91 173 -219 262 -268
308 -168 680 -80 882 211 99 143 139 339 104 511 -35 173 -119 306 -264 423
-133 107 -386 156 -558 109z"/>
<path d="M1565 6309 c-266 -37 -482 -224 -555 -479 -25 -87 -34 -244 -19 -310
6 -25 12 -52 14 -60 19 -84 85 -205 155 -282 82 -92 229 -178 347 -203 67 -15
220 -14 288 2 214 49 396 204 476 405 22 56 23 61 41 148 13 70 4 228 -17 300
-35 115 -82 192 -175 291 -134 140 -356 216 -555 188z"/>
<path d="M5183 6300 c-246 -64 -432 -256 -492 -507 -7 -27 -13 -85 -15 -128
-11 -338 226 -632 556 -689 213 -37 423 29 576 183 79 79 81 82 120 152 146
260 103 591 -104 804 -166 171 -418 244 -641 185z"/>
<path d="M612 4589 c-89 -8 -109 -13 -192 -46 -147 -59 -288 -192 -352 -333
-50 -109 -62 -163 -62 -290 0 -92 5 -141 18 -184 152 -505 751 -665 1120 -300
207 205 256 548 114 804 -47 85 -91 137 -188 220 -46 40 -202 108 -275 119
-101 17 -103 17 -183 10z"/>
<path d="M6210 4589 c-199 -33 -390 -179 -481 -367 -53 -109 -73 -210 -66
-332 9 -149 38 -237 122 -359 86 -127 230 -227 385 -268 100 -26 255 -22 353
10 402 130 588 571 402 953 -106 219 -326 363 -565 369 -52 2 -120 -1 -150 -6z"/>
<path d="M909 2624 c-126 -20 -240 -73 -332 -154 -231 -204 -297 -535 -162
-815 196 -405 734 -503 1058 -192 208 199 268 509 150 776 -120 271 -418 432
-714 385z"/>
<path d="M5855 2625 c-206 -46 -369 -174 -461 -360 -220 -448 87 -965 581
-979 390 -11 706 320 682 713 -7 104 -24 176 -66 261 -29 62 -26 56 -84 130
-151 191 -419 288 -652 235z"/>
<path d="M2395 1344 c-266 -57 -455 -238 -525 -507 -27 -103 -22 -255 13 -362
72 -221 235 -381 457 -450 83 -26 250 -28 341 -4 226 60 397 219 475 444 25
72 28 94 28 215 1 121 -2 143 -26 211 -39 110 -92 194 -175 276 -58 57 -92 82
-165 117 -51 24 -115 49 -143 56 -71 17 -210 19 -280 4z"/>
<path d="M4326 1339 c-413 -106 -625 -561 -443 -949 174 -372 638 -500 977
-270 146 99 264 283 288 450 31 217 -36 433 -184 586 -66 68 -196 152 -263
170 -147 38 -261 42 -375 13z"/>
</g>
</svg>
