<svg aria-hidden="true" style="position:absolute;width:0;height:0" xmlns="http://www.w3.org/2000/svg" overflow="hidden"><defs><symbol id="icon-info" viewBox="0 0 32 32"><path d="M16.247 4.733c0 1.684 1.271 2.825 2.84 2.825s2.842-1.142 2.842-2.825c0-1.685-1.272-2.826-2.842-2.826-1.568 0-2.84 1.141-2.84 2.826zm-6.151 9.642c0 .334-.061 1.163.008 1.662l2.479-2.983c.513-.562 1.106-.955 1.409-.849s.47.463.371.795L10.26 26.59c-.473 1.588.421 3.148 2.599 3.504 3.189 0 5.084-2.158 6.948-4.955 0-.334.111-1.213.044-1.713l-2.479 2.982c-.514.562-1.151.955-1.455.85-.28-.098-.444-.41-.389-.721l4.132-13.653c.344-1.734-.59-3.312-2.564-3.514-2.076.001-5.136 2.209-7 5.005z"/></symbol><symbol id="icon-arrow-right" viewBox="0 0 24 24"><path d="M12 3.984L20.016 12 12 20.016l-1.406-1.406 5.578-5.625H3.984v-1.969h12.188l-5.578-5.625z"/></symbol><symbol id="icon-phone" viewBox="0 0 24 24"><path d="M6.609 10.781a15.506 15.506 0 006.609 6.609l2.203-2.203c.281-.281.703-.375 1.031-.234 1.125.375 2.344.563 3.563.563a.96.96 0 01.984.984v3.516a.96.96 0 01-.984.984C10.64 21 2.999 13.359 2.999 3.984A.96.96 0 013.983 3h3.516a.96.96 0 01.984.984c0 1.266.188 2.438.563 3.563.094.328.047.75-.234 1.031z"/></symbol><symbol id="icon-check" viewBox="0 0 24 24"><path d="M9 16.172L19.594 5.578 21 6.984l-12 12-5.578-5.578L4.828 12z"/></symbol><symbol id="icon-close" viewBox="0 0 24 24"><path d="M18.984 6.422L13.406 12l5.578 5.578-1.406 1.406L12 13.406l-5.578 5.578-1.406-1.406L10.594 12 5.016 6.422l1.406-1.406L12 10.594l5.578-5.578z"/></symbol><symbol id="icon-quote" viewBox="0 0 24 24"><path d="M14.016 17.016l1.969-4.031h-3v-6h6v6l-1.969 4.031h-3zm-8.016 0l2.016-4.031h-3v-6h6v6L9 17.016H6z"/></symbol><symbol id="icon-home" viewBox="0 0 24 24"><path d="M9.984 20.016H5.015V12h-3l9.984-9 9.984 9h-3v8.016h-4.969v-6H9.983v6z"/></symbol><symbol id="icon-keyboard-arrow-down" viewBox="0 0 24 24"><path d="M7.406 7.828L12 12.422l4.594-4.594L18 9.234l-6 6-6-6z"/></symbol><symbol id="icon-keyboard-arrow-left" viewBox="0 0 24 24"><path d="M15.422 16.078l-1.406 1.406-6-6 6-6 1.406 1.406-4.594 4.594z"/></symbol><symbol id="icon-keyboard-arrow-right" viewBox="0 0 24 24"><path d="M8.578 16.359l4.594-4.594-4.594-4.594 1.406-1.406 6 6-6 6z"/></symbol><symbol id="icon-mail" viewBox="0 0 24 24"><path d="M12 11.016L20.016 6H3.985zM20.016 18V8.016L12 12.985 3.984 8.016V18h16.031zm0-14.016c1.078 0 1.969.938 1.969 2.016v12c0 1.078-.891 2.016-1.969 2.016H3.985c-1.078 0-1.969-.938-1.969-2.016V6c0-1.078.891-2.016 1.969-2.016h16.031z"/></symbol><symbol id="icon-refresh" viewBox="0 0 24 24"><path d="M17.672 6.328l2.344-2.344v7.031h-7.031l3.234-3.234C15.141 6.703 13.641 6 12 6c-3.328 0-6 2.672-6 6s2.672 6 6 6c2.625 0 4.875-1.641 5.672-3.984h2.063c-.891 3.469-3.984 6-7.734 6-4.406 0-7.969-3.609-7.969-8.016s3.563-8.016 7.969-8.016a8.01 8.01 0 015.672 2.344z"/></symbol><symbol id="icon-search" viewBox="0 0 24 24"><path d="M9.516 14.016c2.484 0 4.5-2.016 4.5-4.5s-2.016-4.5-4.5-4.5-4.5 2.016-4.5 4.5 2.016 4.5 4.5 4.5zm6 0l4.969 4.969-1.5 1.5-4.969-4.969v-.797l-.281-.281c-1.125.984-2.625 1.547-4.219 1.547C5.907 15.985 3 13.126 3 9.516S5.906 3 9.516 3s6.469 2.906 6.469 6.516c0 1.594-.563 3.094-1.547 4.219l.281.281h.797z"/></symbol><symbol id="icon-twitter" viewBox="0 0 24 28"><path d="M20 9.531a6.887 6.887 0 01-1.891.531 3.313 3.313 0 001.453-1.828 6.547 6.547 0 01-2.094.797A3.253 3.253 0 0015.077 8a3.28 3.28 0 00-3.281 3.281c0 .25.016.516.078.75a9.324 9.324 0 01-6.781-3.437 3.33 3.33 0 00-.453 1.656c0 1.141.531 2.141 1.422 2.734-.547-.016-1.062-.172-1.563-.406v.031c0 1.594 1.203 2.922 2.703 3.219-.281.078-.5.125-.797.125-.203 0-.406-.031-.609-.063a3.3 3.3 0 003.063 2.281A6.607 6.607 0 014 19.53a9.351 9.351 0 005.031 1.469c6.031 0 9.344-5 9.344-9.344 0-.141 0-.281-.016-.422A6.31 6.31 0 0020 9.53zM24 6.5v15c0 2.484-2.016 4.5-4.5 4.5h-15A4.502 4.502 0 010 21.5v-15C0 4.016 2.016 2 4.5 2h15C21.984 2 24 4.016 24 6.5z"/></symbol><symbol id="icon-facebook" viewBox="0 0 24 28"><path d="M19.5 2C21.984 2 24 4.016 24 6.5v15c0 2.484-2.016 4.5-4.5 4.5h-2.938v-9.297h3.109l.469-3.625h-3.578v-2.312c0-1.047.281-1.75 1.797-1.75L20.265 9V5.766c-.328-.047-1.469-.141-2.781-.141-2.766 0-4.672 1.687-4.672 4.781v2.672H9.687v3.625h3.125V26H4.499a4.502 4.502 0 01-4.5-4.5v-15c0-2.484 2.016-4.5 4.5-4.5h15z"/></symbol><symbol id="icon-youtube" viewBox="0 0 24 28"><path d="M14.359 20.359v-2.453c0-.516-.156-.781-.453-.781-.172 0-.344.078-.516.25v3.5c.172.172.344.25.516.25.297 0 .453-.25.453-.766zm2.875-1.906h1.031v-.531c0-.531-.172-.797-.516-.797s-.516.266-.516.797v.531zm-8.921-4.156v1.094h-1.25V22H5.907v-6.609H4.688v-1.094h3.625zm3.14 1.969V22h-1.047v-.625c-.406.469-.797.703-1.188.703-.328 0-.562-.141-.656-.438-.063-.172-.094-.438-.094-.844v-4.531h1.031v4.219c0 .234 0 .375.016.406.016.156.094.234.234.234.219 0 .422-.156.656-.484v-4.375h1.047zM15.391 18v2.281c0 .516-.031.906-.109 1.141-.125.438-.406.656-.828.656-.359 0-.719-.219-1.062-.641v.562h-1.047v-7.703h1.047v2.516c.328-.406.688-.625 1.062-.625.422 0 .703.219.828.656.078.234.109.609.109 1.156zm3.922 2.016v.141c0 .344-.016.562-.031.672a1.44 1.44 0 01-.234.625c-.281.422-.719.625-1.25.625-.547 0-.969-.203-1.266-.594-.219-.281-.328-.734-.328-1.344v-2.016c0-.609.094-1.047.313-1.344.297-.391.719-.594 1.25-.594.516 0 .938.203 1.219.594.219.297.328.734.328 1.344v1.188h-2.078v1.016c0 .531.172.797.531.797.25 0 .406-.141.469-.406 0-.063.016-.297.016-.703h1.062zM12.266 7.141v2.438c0 .531-.172.797-.5.797-.344 0-.5-.266-.5-.797V7.141c0-.531.156-.812.5-.812.328 0 .5.281.5.812zm8.328 11.14c0-1.344 0-2.766-.297-4.062-.219-.922-.969-1.594-1.859-1.687-2.125-.234-4.281-.234-6.438-.234-2.141 0-4.297 0-6.422.234a2.14 2.14 0 00-1.859 1.687c-.297 1.297-.313 2.719-.313 4.062 0 1.328 0 2.75.313 4.062a2.176 2.176 0 001.844 1.687c2.141.234 4.297.234 6.438.234s4.297 0 6.438-.234a2.176 2.176 0 001.844-1.687c.313-1.313.313-2.734.313-4.062zM8.797 8.109l1.406-4.625H9.031l-.797 3.047-.828-3.047H6.187c.234.719.5 1.437.734 2.156.375 1.094.609 1.906.719 2.469v3.141h1.156V8.109zm4.515 1.266V7.344c0-.609-.109-1.062-.328-1.359-.297-.391-.703-.594-1.219-.594-.531 0-.938.203-1.219.594-.219.297-.328.75-.328 1.359v2.031c0 .609.109 1.062.328 1.359.281.391.688.594 1.219.594.516 0 .922-.203 1.219-.594.219-.281.328-.75.328-1.359zm2.829 1.875h1.047V5.469h-1.047v4.422c-.234.328-.453.484-.656.484-.141 0-.234-.078-.25-.25-.016-.031-.016-.156-.016-.406v-4.25h-1.047v4.578c0 .406.031.672.094.859.109.281.344.422.672.422.391 0 .781-.234 1.203-.703v.625zM24 6.5v15c0 2.484-2.016 4.5-4.5 4.5h-15A4.502 4.502 0 010 21.5v-15C0 4.016 2.016 2 4.5 2h15C21.984 2 24 4.016 24 6.5z"/></symbol><symbol id="icon-location" viewBox="0 0 32 32"><path d="M16 0C10.477 0 6 4.477 6 10c0 10 10 22 10 22s10-12 10-22c0-5.523-4.477-10-10-10zm0 16a6 6 0 110-12 6 6 0 010 12z"/></symbol><symbol id="icon-calendar" viewBox="0 0 32 32"><path d="M10 12h4v4h-4zm6 0h4v4h-4zm6 0h4v4h-4zM4 24h4v4H4zm6 0h4v4h-4zm6 0h4v4h-4zm-6-6h4v4h-4zm6 0h4v4h-4zm6 0h4v4h-4zM4 18h4v4H4zM26 0v2h-4V0H8v2H4V0H0v32h30V0h-4zm2 30H2V8h26v22z"/></symbol></defs></svg>