<svg xmlns="http://www.w3.org/2000/svg" width="228.289" height="52.608" viewBox="0 0 228.289 52.608"><path fill-rule="evenodd" clip-rule="evenodd" fill="#808285" d="M0 35.235h6.872c1.09 0 1.928-.022 2.514-.065s1.072-.103 1.46-.18c1.414-.25 2.71-.82 3.887-1.706 1.178-.886 2.122-2.106 2.834-3.662.712-1.555 1.078-3.462 1.097-5.72.017-1.61-.262-3.196-.836-4.752-.574-1.557-1.548-2.866-2.92-3.925-.907-.64-1.868-1.1-2.88-1.382s-1.948-.456-2.803-.52c-.854-.066-1.496-.093-1.926-.08L0 13.21v22.025zM4.793 16.78c1.335-.057 2.378-.055 3.13.005.75.06 1.357.16 1.822.3 1.465.45 2.508 1.3 3.13 2.55.62 1.248.922 2.67.904 4.266.01.38-.028.94-.1 1.68-.08.74-.26 1.52-.547 2.35-.284.83-.732 1.566-1.344 2.21-.69.666-1.465 1.09-2.326 1.28-.862.188-1.798.27-2.81.248-.285 0-.6-.007-.942-.02-.344-.012-.65-.025-.92-.042v-14.82H4.79zm-3.35 26.873l1.384-3.41 1.356 3.41h-2.74zM.6 45.79l.66-1.635h3.123l.67 1.634h.617l-2.504-6.05h-.66l-2.49 6.05H.6z"/><path fill="#808285" d="M10.768 42.707v.5h1.575v1.954c-.223.07-.452.128-.687.178s-.47.076-.706.08c-.563-.005-1.02-.12-1.368-.345-.348-.226-.603-.536-.762-.933-.16-.397-.24-.855-.237-1.373-.002-.428.065-.843.203-1.245.137-.403.358-.735.662-.998.305-.262.707-.397 1.207-.407.385 0 .726.088 1.02.27s.478.462.546.846h.648c-.038-.355-.166-.654-.383-.894-.216-.24-.486-.42-.81-.54-.323-.12-.66-.18-1.015-.18-.607.01-1.108.164-1.504.47-.396.302-.69.692-.886 1.17-.195.476-.29.98-.29 1.51 0 .623.104 1.17.31 1.642.21.47.51.84.91 1.102.398.265.883.4 1.457.403.4.002.782-.024 1.146-.08s.732-.155 1.106-.296v-2.83h-2.14v-.004zm9.744 3.083v-.503h-3.297v-2.372h3.044v-.502h-3.05v-2.17h3.166v-.503h-3.73v6.05h3.86m3.43 0h.566v-5.23h.018l3.393 5.23h.713v-6.05h-.563v5.32h-.017l-3.464-5.32h-.643v6.05m9.705 0h.556l.01-5.548H36.2v-.502H31.61v.502h2.028l.008 5.547m5.59-6.05v3.92c.008.66.203 1.2.584 1.61.38.415.95.628 1.712.64.76-.012 1.332-.225 1.712-.64.38-.412.576-.95.584-1.61v-3.92h-.564v3.912c-.026.554-.19.983-.494 1.29-.302.31-.715.465-1.237.47-.522-.005-.935-.16-1.238-.47s-.467-.736-.494-1.29V39.74h-.563z"/><path fill-rule="evenodd" clip-rule="evenodd" fill="#808285" d="M48.198 42.405v-2.163h1.27c.21-.008.45 0 .717.02.267.023.5.11.7.263s.306.418.316.798c-.002.338-.1.584-.282.74-.184.153-.413.25-.686.29s-.546.057-.82.052H48.2zm0 .5h1.558c.374-.004.65.034.83.115.18.082.303.24.37.476s.12.58.158 1.036c.015.214.037.427.066.638s.08.417.15.62h.652c-.117-.177-.19-.4-.217-.673l-.113-1.13c-.028-.356-.113-.653-.256-.89-.142-.24-.407-.392-.796-.46v-.016c.37-.09.663-.242.878-.47.216-.22.326-.5.33-.824 0-.29-.052-.542-.158-.755-.106-.214-.267-.384-.484-.51-.237-.14-.475-.227-.714-.266s-.494-.056-.766-.052h-2.052v6.05h.564v-2.88z"/><path fill="#808285" d="M60.487 45.79v-2.91h2.88v-.502h-2.88V40.24h2.984v-.502h-3.543v6.05h.564"/><path fill-rule="evenodd" clip-rule="evenodd" fill="#808285" d="M70.222 38.76v-.736h-.642v.735h.642zm-1.514 0v-.736h-.643v.735h.643zm-1.86.98v3.922c.01.662.203 1.2.584 1.612.38.414.952.627 1.712.64.76-.013 1.332-.226 1.712-.64.38-.413.576-.95.583-1.612V39.74h-.57v3.913c-.026.554-.19.983-.493 1.29s-.715.465-1.238.47c-.523-.005-.936-.16-1.24-.47s-.466-.736-.493-1.29V39.74h-.56zm8.962 2.665v-2.163h1.27c.21-.008.448 0 .715.02.267.023.5.11.7.263.2.152.305.418.315.798-.007.338-.103.584-.287.74-.184.153-.413.25-.685.29-.273.04-.546.057-.82.052h-1.21zm0 .5h1.556c.374-.004.65.034.83.115.18.082.304.24.37.476.07.235.12.58.158 1.036.015.214.037.427.066.638.03.21.08.417.15.62h.652c-.117-.177-.19-.4-.217-.673l-.113-1.13c-.028-.356-.113-.653-.255-.89-.142-.24-.408-.392-.796-.46v-.016c.37-.09.668-.242.88-.47.218-.22.33-.5.33-.824 0-.29-.05-.542-.16-.755-.1-.214-.263-.384-.48-.51-.236-.14-.474-.227-.713-.266-.24-.038-.494-.056-.766-.052h-2.053v6.05h.565v-2.88z"/><path fill="#808285" d="M87.507 45.79h.564v-5.23h.02l3.396 5.23h.713v-6.05h-.566v5.32h-.016l-3.463-5.32h-.642v6.05m12.293 0v-.503h-3.3v-2.372h3.045v-.502H96.5v-2.17h3.166v-.503h-3.73v6.05h3.86m3.478-6.05v3.922c.008.662.203 1.2.583 1.612.38.414.952.627 1.712.64.76-.013 1.33-.226 1.71-.64.38-.413.572-.95.58-1.612V39.74h-.564v3.913c-.027.554-.19.983-.495 1.29s-.714.465-1.237.47c-.522-.005-.935-.16-1.238-.47s-.468-.736-.495-1.29V39.74h-.56zm12.246 6.05v-.503h-3.294v-2.372h3.044v-.502h-3.044v-2.17h3.167v-.503h-3.732v6.05h3.86m8.53 0v-5.564h.017l2.403 5.563h.565l2.4-5.59h.018v5.59h.567v-6.05h-.86l-2.41 5.27-2.36-5.27h-.903v6.05h.565m13.61 0v-.506h-3.297v-2.372h3.045v-.502h-3.045v-2.17h3.166v-.502h-3.73v6.05h3.86"/><path fill-rule="evenodd" clip-rule="evenodd" fill="#808285" d="M141.648 45.287v-5.045h.887c.9-.028 1.602.163 2.105.573.502.41.758 1.06.766 1.95.008.77-.188 1.383-.582 1.832-.395.45-1.03.68-1.906.69h-1.27zm-.564-5.547v6.05h1.695c1.032-.002 1.83-.256 2.39-.763.553-.506.834-1.26.84-2.263-.006-1.002-.287-1.757-.844-2.263-.558-.502-1.355-.76-2.39-.76h-1.697z"/><path fill="#808285" d="M150.13 45.79v-6.074h-.564v6.073h.565m7.74 0v-.506h-3.293v-2.372h3.045v-.502h-3.046v-2.17h3.166v-.502h-3.73v6.05h3.86m3.432 0h.564v-5.23h.018l3.392 5.23h.713v-6.05h-.565v5.32h-.018l-3.463-5.32h-.642v6.05"/><path fill-rule="evenodd" clip-rule="evenodd" fill="#808285" d="M21.1 27.66c.015 1.803.37 3.306 1.064 4.51.695 1.204 1.633 2.107 2.817 2.71 1.188.604 2.52.904 4 .904 1.86-.02 3.39-.412 4.587-1.174 1.195-.76 2.08-1.763 2.655-3.006s.86-2.6.856-4.067c.005-1.457-.273-2.794-.832-4.014-.56-1.22-1.43-2.2-2.61-2.94-1.182-.74-2.702-1.12-4.56-1.14-2.013.032-3.603.465-4.77 1.3-1.167.836-1.996 1.878-2.487 3.128-.49 1.256-.73 2.518-.717 3.79zm4.64.03c-.02-.508.022-1.167.13-1.98.107-.812.396-1.547.87-2.204.474-.657 1.25-1.004 2.332-1.042.985.022 1.722.293 2.21.812s.813 1.153.97 1.9c.155.746.227 1.472.212 2.177-.014 2.013-.322 3.406-.92 4.18-.6.774-1.403 1.144-2.412 1.108-1.118.01-1.962-.38-2.533-1.18s-.86-2.05-.86-3.77z"/><path fill="#808285" d="M49.526 32.06c-.263.03-.502.055-.718.07-.216.015-.486.022-.81.022-.965-.008-1.555-.214-1.768-.62-.213-.407-.307-.967-.28-1.68V22.86h3.667v-2.99H45.95v-4.674l-4.487 1.65v3.024H38.5v2.99h2.964v8.495c-.028.456.028 1.005.168 1.648s.534 1.214 1.18 1.715c.645.5 1.712.764 3.2.79.376.005.87-.026 1.482-.095s1.29-.2 2.032-.393v-2.96zm3.35-1.283c-.004.38.063.842.2 1.387.133.544.443 1.09.93 1.638.71.72 1.517 1.218 2.422 1.494.905.277 1.858.41 2.86.397 1.598-.017 2.92-.28 3.97-.787s1.83-1.164 2.346-1.967c.515-.81.772-1.66.77-2.56.004-1.06-.33-1.94-1.006-2.66-.675-.72-1.713-1.27-3.113-1.65l-2.783-.768c-.676-.163-1.196-.35-1.56-.558-.362-.21-.546-.563-.55-1.062.013-.48.217-.852.612-1.12.395-.268.904-.404 1.53-.41.39-.03.83.062 1.318.276.487.214.78.733.883 1.56h4.122c-.1-1.54-.695-2.684-1.786-3.433-1.09-.75-2.45-1.122-4.074-1.12-2.033.015-3.658.444-4.876 1.29-1.22.847-1.844 2.025-1.875 3.536.025 1.038.27 1.847.735 2.428.463.58 1 1.01 1.602 1.28.605.27 1.127.46 1.57.57l2.813.767c.865.243 1.443.507 1.735.79.292.286.427.603.405.953.002.477-.193.897-.585 1.26-.392.363-.992.555-1.8.573-.933-.025-1.59-.255-1.972-.687s-.58-.905-.596-1.42h-4.245z"/><path fill="#CC5036" d="M70.04 13.24v13.18c-.02 1.016.036 1.966.165 2.852.13.887.45 1.745.965 2.578.715 1.094 1.578 1.917 2.588 2.468 1.01.55 2.027.916 3.05 1.097 1.024.182 1.914.265 2.67.25 1.525.015 3.023-.248 4.495-.788s2.695-1.445 3.67-2.715c.977-1.27 1.482-2.99 1.52-5.16V13.24h-4.61v13.18c0 1.09-.06 1.908-.18 2.46-.118.55-.293.98-.522 1.292-.42.62-.913 1.065-1.48 1.34s-1.103.44-1.62.504c-.51.063-.904.09-1.175.078-1.51-.022-2.61-.313-3.294-.872-.685-.56-1.113-1.252-1.285-2.08s-.244-1.652-.217-2.478v-13.42H70.04zm23.29 21.994h4.547v-9.04c.006-.597.063-1.09.172-1.477.104-.39.23-.682.373-.88.25-.37.582-.66.994-.87.41-.21.865-.317 1.36-.32.58.012 1.05.146 1.41.404s.625.566.79.91c.118.248.19.508.215.787.025.278.036.577.03.897v9.594h4.61v-8.34c.003-1.39-.026-2.4-.088-3.03-.062-.628-.175-1.156-.34-1.583-.126-.37-.367-.78-.723-1.225-.354-.447-.856-.833-1.503-1.16-.645-.327-1.47-.498-2.473-.514-1.112.02-2.012.2-2.7.54-.686.34-1.21.72-1.57 1.138-.362.418-.61.754-.744 1.008l-.12-2.32h-4.334c.044.583.07 1.177.08 1.785.01.608.014.95.012 1.027V35.24z"/><path fill-rule="evenodd" clip-rule="evenodd" fill="#CC5036" d="M112.37 17.117h4.824V13.18h-4.825v3.937zm.15 18.117h4.52V19.78h-4.52v15.454z"/><path fill="#CC5036" d="M130.71 32.06c-.263.03-.503.055-.718.07-.217.015-.486.022-.81.022-.966-.008-1.556-.214-1.77-.62-.214-.407-.306-.967-.278-1.68V22.86h3.666v-2.99h-3.666v-4.674l-4.488 1.65v3.024h-2.963v2.99h2.963v8.495c-.027.456.03 1.005.17 1.648s.533 1.214 1.178 1.715c.646.5 1.713.764 3.2.79.376.005.87-.026 1.483-.095.61-.068 1.29-.2 2.03-.393v-2.96h.002z"/><path fill-rule="evenodd" clip-rule="evenodd" fill="#CC5036" d="M147.598 28.666c.055-.664.04-1.503-.045-2.516-.084-1.012-.375-2.058-.87-3.136-.737-1.41-1.677-2.39-2.817-2.938-1.14-.548-2.28-.81-3.414-.786-.842.004-1.627.118-2.354.343-.73.225-1.39.538-1.986.938-1.27.94-2.127 2.07-2.576 3.39-.447 1.325-.658 2.63-.63 3.916-.005 1.242.15 2.372.466 3.39.316 1.017.822 1.894 1.52 2.63.852.815 1.797 1.346 2.832 1.592 1.037.246 1.904.356 2.605.332 1.14 0 2.183-.153 3.124-.455s1.7-.75 2.28-1.347c.604-.668.997-1.3 1.18-1.897.18-.596.274-1.083.284-1.463h-4.12c-.23.84-.59 1.41-1.083 1.713s-1.028.444-1.608.427c-1.03-.032-1.77-.314-2.218-.846-.448-.53-.72-1.12-.817-1.763s-.138-1.15-.118-1.52h10.354zm-10.203-2.838c.035-.934.283-1.735.74-2.404.457-.67 1.18-1.02 2.164-1.052.854.03 1.48.276 1.86.74s.62.966.71 1.508c.093.542.13.944.114 1.208h-5.593zM161.32 21.7c-.127-.198-.355-.46-.684-.79-.328-.327-.79-.624-1.383-.89-.594-.268-1.352-.41-2.273-.425-2.05.026-3.688.768-4.918 2.225-1.23 1.458-1.86 3.475-1.895 6.053.018 2.433.596 4.313 1.738 5.645 1.14 1.33 2.75 2.005 4.828 2.022.35.013.79-.027 1.326-.122.53-.094 1.09-.317 1.67-.67.46-.307.8-.604 1.02-.894.22-.29.394-.572.533-.847l.123 2.227h4.58c-.034-.3-.06-.676-.087-1.125-.023-.45-.035-.91-.037-1.38V13.18h-4.55v8.52h.003zm-6.572 6.05c-.016-.554.053-1.233.2-2.04s.462-1.522.944-2.154c.484-.632 1.225-.965 2.22-1 1.034.005 1.85.406 2.448 1.203.596.792.9 1.95.912 3.47.012.404-.025.945-.113 1.622s-.3 1.348-.62 2.014c-.256.485-.63.895-1.13 1.226-.5.33-1.085.502-1.75.516-1.12-.043-1.92-.53-2.405-1.47-.487-.936-.724-2.067-.712-3.393z"/><path fill="#808285" d="M206.744 5.103c0 2.818-2.285 5.103-5.104 5.103-2.816 0-5.102-2.285-5.102-5.103 0-2.818 2.285-5.103 5.102-5.103 2.82 0 5.104 2.284 5.104 5.103z"/><path fill="#808285" d="M206.744 5.103c0 2.818-2.285 5.103-5.104 5.103-2.816 0-5.102-2.285-5.102-5.103 0-2.818 2.285-5.103 5.102-5.103 2.82 0 5.104 2.284 5.104 5.103zm-15.236 1.85c1.81 2.16 1.53 5.377-.63 7.188-2.157 1.816-5.376 1.53-7.188-.624-1.81-2.16-1.53-5.377.63-7.188 2.16-1.81 5.377-1.53 7.188.63zm-10.483 11.21c2.775.49 4.63 3.137 4.14 5.91-.49 2.777-3.136 4.63-5.91 4.14s-4.628-3.135-4.14-5.91c.49-2.776 3.137-4.63 5.91-4.14zm-.822 15.327c2.44-1.41 5.56-.573 6.97 1.867 1.41 2.44.573 5.56-1.868 6.97-2.44 1.41-5.56.572-6.97-1.868-1.41-2.44-.573-5.566 1.868-6.97zm9.22 12.27c.964-2.65 3.89-4.015 6.54-3.05s4.014 3.89 3.05 6.54c-.964 2.646-3.89 4.013-6.54 3.05s-4.014-3.893-3.05-6.54zm14.95 3.47c-.963-2.647.402-5.576 3.05-6.54 2.647-.963 5.575.402 6.54 3.05.963 2.648-.402 5.576-3.05 6.54-2.647.964-5.575-.4-6.54-3.05zm13.684-6.95c-2.44-1.408-3.275-4.53-1.867-6.97s4.53-3.276 6.97-1.867c2.44 1.41 3.276 4.53 1.868 6.97s-4.53 3.276-6.97 1.867zm6.015-14.12c-2.775.49-5.422-1.362-5.91-4.138-.49-2.775 1.363-5.42 4.14-5.91 2.774-.49 5.42 1.363 5.91 4.138.49 2.775-1.364 5.422-4.14 5.91z"/><path fill="#CC5036" d="M219.605 13.48c-1.812 2.157-5.03 2.44-7.19.628-2.157-1.812-2.438-5.03-.628-7.188 1.812-2.16 5.03-2.44 7.188-.63 2.16 1.812 2.44 5.03.63 7.19z"/></svg>