<svg xmlns="http://www.w3.org/2000/svg" width="216" height="146" viewBox="0 0 216 146"><path fill="#FFF" d="M162.18 41.592c-5.595-9.586-13.185-17.176-22.77-22.77-9.59-5.596-20.057-8.393-31.41-8.393-11.35 0-21.82 2.795-31.407 8.39-9.587 5.594-17.177 13.184-22.772 22.77-5.594 9.59-8.39 20.06-8.39 31.41 0 11.352 2.798 21.82 8.392 31.408 5.595 9.585 13.185 17.176 22.772 22.77 9.587 5.596 20.056 8.393 31.408 8.393s21.822-2.794 31.408-8.388c9.586-5.596 17.176-13.187 22.77-22.772 5.594-9.59 8.39-20.06 8.39-31.41 0-11.352-2.797-21.822-8.39-31.408zm-21.346 35.074l-36.99 36.99c-1.03 1.03-2.252 1.548-3.665 1.548-1.415 0-2.637-.517-3.67-1.548l-8.31-8.312c-1.03-1.03-1.547-2.254-1.547-3.666 0-1.41.516-2.635 1.548-3.666L113.216 73 88.2 47.988c-1.03-1.03-1.547-2.254-1.547-3.666s.516-2.634 1.548-3.666l8.31-8.312c1.035-1.032 2.256-1.548 3.67-1.548 1.412 0 2.634.516 3.666 1.548l36.99 36.99c1.03 1.03 1.547 2.253 1.547 3.665s-.516 2.633-1.55 3.666z"/></svg>