<svg xmlns="http://www.w3.org/2000/svg" width="216" height="146" viewBox="0 0 216 146"><path fill="#FFF" d="M105.393 73.04l39.595-39.595c2.01-2.01 3.015-4.468 3.015-7.374 0-2.904-1.004-5.36-3.015-7.37l-6.11-6.11c-2.01-2.01-4.467-3.016-7.372-3.016-2.906 0-5.363 1.005-7.374 3.014l-53.12 53.04c-2.01 2.01-3.015 4.467-3.015 7.373 0 2.907 1.005 5.364 3.015 7.374l53.12 53.04c2.01 2.01 4.468 3.014 7.374 3.014 2.905 0 5.363-1.005 7.372-3.015l6.11-6.11c2.01-2.01 3.015-4.453 3.015-7.332 0-2.88-1.004-5.35-3.015-7.415L105.393 73.04z"/></svg>