<svg xmlns="http://www.w3.org/2000/svg" width="53.253" height="52.608" viewBox="175.037 0 53.253 52.608"><path fill="#808285" d="M206.744 5.103c0 2.818-2.285 5.104-5.104 5.104-2.816 0-5.103-2.285-5.103-5.104 0-2.817 2.284-5.103 5.103-5.103 2.82 0 5.104 2.284 5.104 5.103z"/><path fill="#808285" d="M206.744 5.103c0 2.818-2.285 5.104-5.104 5.104-2.816 0-5.103-2.285-5.103-5.104 0-2.817 2.284-5.103 5.103-5.103 2.82 0 5.104 2.284 5.104 5.103zm-15.236 1.85c1.81 2.16 1.53 5.377-.63 7.188-2.157 1.817-5.376 1.53-7.188-.623-1.81-2.16-1.53-5.377.63-7.188s5.378-1.53 7.19.63v-.007zm-10.483 11.21c2.774.49 4.63 3.137 4.14 5.91-.49 2.776-3.136 4.63-5.91 4.14s-4.628-3.135-4.14-5.91c.49-2.776 3.137-4.63 5.91-4.14zm-.822 15.327c2.44-1.41 5.56-.572 6.97 1.867 1.41 2.44.573 5.56-1.868 6.97-2.44 1.41-5.56.572-6.97-1.867-1.41-2.44-.573-5.567 1.868-6.97zm9.22 12.27c.964-2.65 3.89-4.015 6.54-3.05s4.014 3.89 3.05 6.54c-.964 2.646-3.89 4.013-6.54 3.05s-4.014-3.894-3.05-6.54zm14.95 3.47c-.963-2.646.402-5.576 3.05-6.54 2.647-.963 5.575.402 6.54 3.05.963 2.648-.402 5.576-3.05 6.54-2.647.964-5.575-.4-6.54-3.05zm13.684-6.95c-2.44-1.407-3.274-4.53-1.867-6.97 1.408-2.44 4.53-3.275 6.97-1.867 2.44 1.41 3.276 4.53 1.868 6.97-1.407 2.44-4.53 3.276-6.97 1.867zm6.015-14.12c-2.775.49-5.422-1.362-5.91-4.14-.49-2.773 1.363-5.42 4.14-5.91 2.774-.488 5.42 1.364 5.91 4.14.49 2.775-1.364 5.422-4.14 5.91z"/><path fill="#CC5036" d="M219.605 13.48c-1.812 2.157-5.03 2.44-7.19.628-2.157-1.812-2.438-5.03-.628-7.188 1.812-2.16 5.03-2.44 7.188-.63 2.16 1.812 2.44 5.03.63 7.19z"/></svg>