<svg aria-hidden="true" style="position: absolute; width: 0; height: 0; overflow: hidden;" version="1.1" xmlns="http://www.w3.org/2000/svg" xmlns:xlink="http://www.w3.org/1999/xlink">
<defs>
<symbol id="icon-info" viewBox="0 0 32 32">
<title>info</title>
<path d="M16.247 4.733c0 1.684 1.271 2.825 2.84 2.825s2.842-1.142 2.842-2.825c0-1.685-1.272-2.826-2.842-2.826-1.568 0-2.84 1.141-2.84 2.826zM10.096 14.375c0 0.334-0.061 1.163 0.008 1.662l2.479-2.983c0.513-0.562 1.106-0.955 1.409-0.849s0.47 0.463 0.371 0.795l-4.103 13.59c-0.473 1.588 0.421 3.148 2.599 3.504 3.189 0 5.084-2.158 6.948-4.955 0-0.334 0.111-1.213 0.044-1.713l-2.479 2.982c-0.514 0.562-1.151 0.955-1.455 0.85-0.28-0.098-0.444-0.41-0.389-0.721l4.132-13.653c0.344-1.734-0.59-3.312-2.564-3.514-2.076 0.001-5.136 2.209-7 5.005z"></path>
</symbol>
<symbol id="icon-arrow-right" viewBox="0 0 24 24">
<title>arrow-right</title>
<path d="M12 3.984l8.016 8.016-8.016 8.016-1.406-1.406 5.578-5.625h-12.188v-1.969h12.188l-5.578-5.625z"></path>
</symbol>
<symbol id="icon-phone" viewBox="0 0 24 24">
<title>phone</title>
<path d="M6.609 10.781c1.453 2.813 3.797 5.156 6.609 6.609l2.203-2.203c0.281-0.281 0.703-0.375 1.031-0.234 1.125 0.375 2.344 0.563 3.563 0.563 0.563 0 0.984 0.422 0.984 0.984v3.516c0 0.563-0.422 0.984-0.984 0.984-9.375 0-17.016-7.641-17.016-17.016 0-0.563 0.422-0.984 0.984-0.984h3.516c0.563 0 0.984 0.422 0.984 0.984 0 1.266 0.188 2.438 0.563 3.563 0.094 0.328 0.047 0.75-0.234 1.031z"></path>
</symbol>
<symbol id="icon-check" viewBox="0 0 24 24">
<title>check</title>
<path d="M9 16.172l10.594-10.594 1.406 1.406-12 12-5.578-5.578 1.406-1.406z"></path>
</symbol>
<symbol id="icon-close" viewBox="0 0 24 24">
<title>close</title>
<path d="M18.984 6.422l-5.578 5.578 5.578 5.578-1.406 1.406-5.578-5.578-5.578 5.578-1.406-1.406 5.578-5.578-5.578-5.578 1.406-1.406 5.578 5.578 5.578-5.578z"></path>
</symbol>
<symbol id="icon-quote" viewBox="0 0 24 24">
<title>quote</title>
<path d="M14.016 17.016l1.969-4.031h-3v-6h6v6l-1.969 4.031h-3zM6 17.016l2.016-4.031h-3v-6h6v6l-2.016 4.031h-3z"></path>
</symbol>
<symbol id="icon-home" viewBox="0 0 24 24">
<title>home</title>
<path d="M9.984 20.016h-4.969v-8.016h-3l9.984-9 9.984 9h-3v8.016h-4.969v-6h-4.031v6z"></path>
</symbol>
<symbol id="icon-keyboard-arrow-down" viewBox="0 0 24 24">
<title>keyboard-arrow-down</title>
<path d="M7.406 7.828l4.594 4.594 4.594-4.594 1.406 1.406-6 6-6-6z"></path>
</symbol>
<symbol id="icon-keyboard-arrow-left" viewBox="0 0 24 24">
<title>keyboard-arrow-left</title>
<path d="M15.422 16.078l-1.406 1.406-6-6 6-6 1.406 1.406-4.594 4.594z"></path>
</symbol>
<symbol id="icon-keyboard-arrow-right" viewBox="0 0 24 24">
<title>keyboard-arrow-right</title>
<path d="M8.578 16.359l4.594-4.594-4.594-4.594 1.406-1.406 6 6-6 6z"></path>
</symbol>
<symbol id="icon-mail" viewBox="0 0 24 24">
<title>mail</title>
<path d="M12 11.016l8.016-5.016h-16.031zM20.016 18v-9.984l-8.016 4.969-8.016-4.969v9.984h16.031zM20.016 3.984c1.078 0 1.969 0.938 1.969 2.016v12c0 1.078-0.891 2.016-1.969 2.016h-16.031c-1.078 0-1.969-0.938-1.969-2.016v-12c0-1.078 0.891-2.016 1.969-2.016h16.031z"></path>
</symbol>
<symbol id="icon-refresh" viewBox="0 0 24 24">
<title>refresh</title>
<path d="M17.672 6.328l2.344-2.344v7.031h-7.031l3.234-3.234c-1.078-1.078-2.578-1.781-4.219-1.781-3.328 0-6 2.672-6 6s2.672 6 6 6c2.625 0 4.875-1.641 5.672-3.984h2.063c-0.891 3.469-3.984 6-7.734 6-4.406 0-7.969-3.609-7.969-8.016s3.563-8.016 7.969-8.016c2.203 0 4.219 0.891 5.672 2.344z"></path>
</symbol>
<symbol id="icon-search" viewBox="0 0 24 24">
<title>search</title>
<path d="M9.516 14.016c2.484 0 4.5-2.016 4.5-4.5s-2.016-4.5-4.5-4.5-4.5 2.016-4.5 4.5 2.016 4.5 4.5 4.5zM15.516 14.016l4.969 4.969-1.5 1.5-4.969-4.969v-0.797l-0.281-0.281c-1.125 0.984-2.625 1.547-4.219 1.547-3.609 0-6.516-2.859-6.516-6.469s2.906-6.516 6.516-6.516 6.469 2.906 6.469 6.516c0 1.594-0.563 3.094-1.547 4.219l0.281 0.281h0.797z"></path>
</symbol>
<symbol id="icon-twitter" viewBox="0 0 24 28">
<title>twitter</title>
<path d="M20 9.531c-0.594 0.266-1.219 0.438-1.891 0.531 0.688-0.406 1.203-1.062 1.453-1.828-0.641 0.375-1.344 0.656-2.094 0.797-0.594-0.641-1.453-1.031-2.391-1.031-1.813 0-3.281 1.469-3.281 3.281 0 0.25 0.016 0.516 0.078 0.75-2.734-0.141-5.156-1.437-6.781-3.437-0.281 0.484-0.453 1.062-0.453 1.656 0 1.141 0.531 2.141 1.422 2.734-0.547-0.016-1.062-0.172-1.563-0.406v0.031c0 1.594 1.203 2.922 2.703 3.219-0.281 0.078-0.5 0.125-0.797 0.125-0.203 0-0.406-0.031-0.609-0.063 0.422 1.297 1.625 2.25 3.063 2.281-1.125 0.875-2.531 1.406-4.078 1.406-0.266 0-0.531-0.016-0.781-0.047 1.453 0.922 3.172 1.469 5.031 1.469 6.031 0 9.344-5 9.344-9.344 0-0.141 0-0.281-0.016-0.422 0.641-0.453 1.203-1.031 1.641-1.703zM24 6.5v15c0 2.484-2.016 4.5-4.5 4.5h-15c-2.484 0-4.5-2.016-4.5-4.5v-15c0-2.484 2.016-4.5 4.5-4.5h15c2.484 0 4.5 2.016 4.5 4.5z"></path>
</symbol>
<symbol id="icon-facebook" viewBox="0 0 24 28">
<title>facebook</title>
<path d="M19.5 2c2.484 0 4.5 2.016 4.5 4.5v15c0 2.484-2.016 4.5-4.5 4.5h-2.938v-9.297h3.109l0.469-3.625h-3.578v-2.312c0-1.047 0.281-1.75 1.797-1.75l1.906-0.016v-3.234c-0.328-0.047-1.469-0.141-2.781-0.141-2.766 0-4.672 1.687-4.672 4.781v2.672h-3.125v3.625h3.125v9.297h-8.313c-2.484 0-4.5-2.016-4.5-4.5v-15c0-2.484 2.016-4.5 4.5-4.5h15z"></path>
</symbol>
<symbol id="icon-youtube" viewBox="0 0 24 28">
<title>youtube</title>
<path d="M14.359 20.359v-2.453c0-0.516-0.156-0.781-0.453-0.781-0.172 0-0.344 0.078-0.516 0.25v3.5c0.172 0.172 0.344 0.25 0.516 0.25 0.297 0 0.453-0.25 0.453-0.766zM17.234 18.453h1.031v-0.531c0-0.531-0.172-0.797-0.516-0.797s-0.516 0.266-0.516 0.797v0.531zM8.313 14.297v1.094h-1.25v6.609h-1.156v-6.609h-1.219v-1.094h3.625zM11.453 16.266v5.734h-1.047v-0.625c-0.406 0.469-0.797 0.703-1.188 0.703-0.328 0-0.562-0.141-0.656-0.438-0.063-0.172-0.094-0.438-0.094-0.844v-4.531h1.031v4.219c0 0.234 0 0.375 0.016 0.406 0.016 0.156 0.094 0.234 0.234 0.234 0.219 0 0.422-0.156 0.656-0.484v-4.375h1.047zM15.391 18v2.281c0 0.516-0.031 0.906-0.109 1.141-0.125 0.438-0.406 0.656-0.828 0.656-0.359 0-0.719-0.219-1.062-0.641v0.562h-1.047v-7.703h1.047v2.516c0.328-0.406 0.688-0.625 1.062-0.625 0.422 0 0.703 0.219 0.828 0.656 0.078 0.234 0.109 0.609 0.109 1.156zM19.313 20.016v0.141c0 0.344-0.016 0.562-0.031 0.672-0.031 0.234-0.109 0.438-0.234 0.625-0.281 0.422-0.719 0.625-1.25 0.625-0.547 0-0.969-0.203-1.266-0.594-0.219-0.281-0.328-0.734-0.328-1.344v-2.016c0-0.609 0.094-1.047 0.313-1.344 0.297-0.391 0.719-0.594 1.25-0.594 0.516 0 0.938 0.203 1.219 0.594 0.219 0.297 0.328 0.734 0.328 1.344v1.188h-2.078v1.016c0 0.531 0.172 0.797 0.531 0.797 0.25 0 0.406-0.141 0.469-0.406 0-0.063 0.016-0.297 0.016-0.703h1.062zM12.266 7.141v2.438c0 0.531-0.172 0.797-0.5 0.797-0.344 0-0.5-0.266-0.5-0.797v-2.438c0-0.531 0.156-0.812 0.5-0.812 0.328 0 0.5 0.281 0.5 0.812zM20.594 18.281v0c0-1.344 0-2.766-0.297-4.062-0.219-0.922-0.969-1.594-1.859-1.687-2.125-0.234-4.281-0.234-6.438-0.234-2.141 0-4.297 0-6.422 0.234-0.906 0.094-1.656 0.766-1.859 1.687-0.297 1.297-0.313 2.719-0.313 4.062v0c0 1.328 0 2.75 0.313 4.062 0.203 0.906 0.953 1.578 1.844 1.687 2.141 0.234 4.297 0.234 6.438 0.234s4.297 0 6.438-0.234c0.891-0.109 1.641-0.781 1.844-1.687 0.313-1.313 0.313-2.734 0.313-4.062zM8.797 8.109l1.406-4.625h-1.172l-0.797 3.047-0.828-3.047h-1.219c0.234 0.719 0.5 1.437 0.734 2.156 0.375 1.094 0.609 1.906 0.719 2.469v3.141h1.156v-3.141zM13.312 9.375v-2.031c0-0.609-0.109-1.062-0.328-1.359-0.297-0.391-0.703-0.594-1.219-0.594-0.531 0-0.938 0.203-1.219 0.594-0.219 0.297-0.328 0.75-0.328 1.359v2.031c0 0.609 0.109 1.062 0.328 1.359 0.281 0.391 0.688 0.594 1.219 0.594 0.516 0 0.922-0.203 1.219-0.594 0.219-0.281 0.328-0.75 0.328-1.359zM16.141 11.25h1.047v-5.781h-1.047v4.422c-0.234 0.328-0.453 0.484-0.656 0.484-0.141 0-0.234-0.078-0.25-0.25-0.016-0.031-0.016-0.156-0.016-0.406v-4.25h-1.047v4.578c0 0.406 0.031 0.672 0.094 0.859 0.109 0.281 0.344 0.422 0.672 0.422 0.391 0 0.781-0.234 1.203-0.703v0.625zM24 6.5v15c0 2.484-2.016 4.5-4.5 4.5h-15c-2.484 0-4.5-2.016-4.5-4.5v-15c0-2.484 2.016-4.5 4.5-4.5h15c2.484 0 4.5 2.016 4.5 4.5z"></path>
</symbol>
<symbol id="icon-location" viewBox="0 0 32 32">
<title>location</title>
<path d="M16 0c-5.523 0-10 4.477-10 10 0 10 10 22 10 22s10-12 10-22c0-5.523-4.477-10-10-10zM16 16c-3.314 0-6-2.686-6-6s2.686-6 6-6 6 2.686 6 6-2.686 6-6 6z"></path>
</symbol>
<symbol id="icon-calendar" viewBox="0 0 32 32">
<title>calendar</title>
<path d="M10 12h4v4h-4zM16 12h4v4h-4zM22 12h4v4h-4zM4 24h4v4h-4zM10 24h4v4h-4zM16 24h4v4h-4zM10 18h4v4h-4zM16 18h4v4h-4zM22 18h4v4h-4zM4 18h4v4h-4zM26 0v2h-4v-2h-14v2h-4v-2h-4v32h30v-32h-4zM28 30h-26v-22h26v22z"></path>
</symbol>
</defs>
</svg>
